# xmcd
#
# Track frame offsets: 
#        150
#        19195
#        38658
#        53501
#        78443
#        122729
#        145558
#        169146
#        192540
#
# Disc length: 2789 seconds
#
# Revision: 0
# Processed by: cddbd v1.5.2PL0 Copyright (c) Steve Scherf et al.
# Submitted via: ExactAudioCopy v0.95b4
#
DISCID=6e0ae309
DTITLE=The Daniel Nathan Band - Screener
DYEAR=2006
DGENRE=Blues
TTITLE0=Running Shoes
TTITLE1=Mountain Rider
TTITLE2=Tree Branch
TTITLE3=The Answer
TTITLE4=The Sweetest Thing
TTITLE5=Lightning Mojo
TTITLE6=Through The Haze
TTITLE7=Are You Gonna Roll With Me?
TTITLE8=Bring It Back
EXTD=
EXTT0=
EXTT1=
EXTT2=
EXTT3=
EXTT4=
EXTT5=
EXTT6=
EXTT7=
EXTT8=
PLAYORDER=
